<svg xmlns="http://www.w3.org/2000/svg" viewBox="0 0 24 24"><path d="m12.183 6.521.001.001h.001zM11.815 17.644l-.001-.001h-.001zM23.849 11.066l.002.005h.001z"/><path fill="#8080F2" d="m7.309 9.012 4.553-2.629a.367.367 0 0 1 .368 0l4.553 2.629a.368.368 0 0 1 .184.319v5.258c0 .132-.07.253-.184.319l-4.553 2.629a.367.367 0 0 1-.368 0l-4.553-2.629a.368.368 0 0 1-.184-.319V9.331c0-.132.07-.253.184-.319z"/><path fill="#4B32C3" d="m23.852 11.529-5.446-9.475c-.198-.343-.563-.595-.959-.595H6.554c-.396 0-.761.253-.959.595L.149 11.508a1.126 1.126 0 0 0 0 1.118l5.446 9.397c.198.343.563.518.959.518h10.893c.396 0 .761-.17.959-.513l5.446-9.413a1.072 1.072 0 0 0 0-1.086zm-4.51 4.556a.4.4 0 0 1-.205.338L12.2 20.426a.392.392 0 0 1-.392 0l-6.943-4.002a.4.4 0 0 1-.205-.338V8.08a.4.4 0 0 1 .204-.338L11.8 3.74a.392.392 0 0 1 .392 0l6.943 4.003a.4.4 0 0 1 .206.338l.001 8.004z"/></svg>