<svg width="130" height="91" viewBox="0 0 130 91" fill="none" xmlns="http://www.w3.org/2000/svg">
<g filter="url(#filter0_b_1_35)">
<path fill-rule="evenodd" clip-rule="evenodd" d="M50.2895 0C43.6766 0 38.3158 5.3608 38.3158 11.9737V90.9529C38.3158 90.9789 38.3369 91 38.3629 91V91C38.3863 91 38.4062 90.9828 38.4097 90.9597C39.4305 84.2659 48.6482 79.0263 59.8684 79.0263V79.0263C61.165 79.0263 62.2632 78.0068 62.2632 76.7102V11.9737C62.2632 5.3608 56.9024 0 50.2895 0V0Z" fill="#169EC9"/>
<path fill-rule="evenodd" clip-rule="evenodd" d="M50.2895 0C43.6766 0 38.3158 5.3608 38.3158 11.9737V90.9529C38.3158 90.9789 38.3369 91 38.3629 91V91C38.3863 91 38.4062 90.9828 38.4097 90.9597C39.4305 84.2659 48.6482 79.0263 59.8684 79.0263V79.0263C61.165 79.0263 62.2632 78.0068 62.2632 76.7102V11.9737C62.2632 5.3608 56.9024 0 50.2895 0V0Z" fill="#169EC9"/>
</g>
<g filter="url(#filter1_i_1_35)">
<path fill-rule="evenodd" clip-rule="evenodd" d="M4.06098 57.4737C7.77721 54.6769 10.0611 50.8798 10.0611 46.6974C10.0611 41.1517 6.04565 36.2834 0 33.5263H69.9296C80.5102 33.5263 89.0875 42.1036 89.0875 52.6842C89.0875 55.3294 86.9431 57.4737 84.298 57.4737H4.06098Z" fill="#169EC9"/>
<path fill-rule="evenodd" clip-rule="evenodd" d="M4.06098 57.4737C7.77721 54.6769 10.0611 50.8798 10.0611 46.6974C10.0611 41.1517 6.04565 36.2834 0 33.5263H69.9296C80.5102 33.5263 89.0875 42.1036 89.0875 52.6842C89.0875 55.3294 86.9431 57.4737 84.298 57.4737H4.06098Z" fill="#169EC9"/>
</g>
<g filter="url(#filter2_i_1_35)">
<path fill-rule="evenodd" clip-rule="evenodd" d="M129.316 0.414737C129.316 0.185684 129.13 0 128.901 0H50.2895C43.6766 0 38.3158 5.3608 38.3158 11.9737V11.9737C38.3158 18.5866 43.6766 23.9474 50.2895 23.9474H109.141C112.491 23.9474 114.947 16.5213 114.947 13.1711V13.1711C114.947 7.51147 120.789 2.68562 128.988 0.822142C129.178 0.778856 129.316 0.610047 129.316 0.414737V0.414737Z" fill="#169EC9"/>
</g>
<defs>
<filter id="filter0_b_1_35" x="34.3158" y="-4" width="31.9474" height="99" filterUnits="userSpaceOnUse" color-interpolation-filters="sRGB">
<feFlood flood-opacity="0" result="BackgroundImageFix"/>
<feGaussianBlur in="BackgroundImage" stdDeviation="2"/>
<feComposite in2="SourceAlpha" operator="in" result="effect1_backgroundBlur_1_35"/>
<feBlend mode="normal" in="SourceGraphic" in2="effect1_backgroundBlur_1_35" result="shape"/>
</filter>
<filter id="filter1_i_1_35" x="0" y="33.5263" width="89.0875" height="27.9474" filterUnits="userSpaceOnUse" color-interpolation-filters="sRGB">
<feFlood flood-opacity="0" result="BackgroundImageFix"/>
<feBlend mode="normal" in="SourceGraphic" in2="BackgroundImageFix" result="shape"/>
<feColorMatrix in="SourceAlpha" type="matrix" values="0 0 0 0 0 0 0 0 0 0 0 0 0 0 0 0 0 0 127 0" result="hardAlpha"/>
<feOffset dy="4"/>
<feGaussianBlur stdDeviation="2"/>
<feComposite in2="hardAlpha" operator="arithmetic" k2="-1" k3="1"/>
<feColorMatrix type="matrix" values="0 0 0 0 0 0 0 0 0 0 0 0 0 0 0 0 0 0 0.25 0"/>
<feBlend mode="normal" in2="shape" result="effect1_innerShadow_1_35"/>
</filter>
<filter id="filter2_i_1_35" x="38.3158" y="0" width="91" height="27.9474" filterUnits="userSpaceOnUse" color-interpolation-filters="sRGB">
<feFlood flood-opacity="0" result="BackgroundImageFix"/>
<feBlend mode="normal" in="SourceGraphic" in2="BackgroundImageFix" result="shape"/>
<feColorMatrix in="SourceAlpha" type="matrix" values="0 0 0 0 0 0 0 0 0 0 0 0 0 0 0 0 0 0 127 0" result="hardAlpha"/>
<feOffset dy="4"/>
<feGaussianBlur stdDeviation="2"/>
<feComposite in2="hardAlpha" operator="arithmetic" k2="-1" k3="1"/>
<feColorMatrix type="matrix" values="0 0 0 0 0 0 0 0 0 0 0 0 0 0 0 0 0 0 0.25 0"/>
<feBlend mode="normal" in2="shape" result="effect1_innerShadow_1_35"/>
</filter>
</defs>
</svg>
